# xmcd
#
# Track frame offsets:
#	183
#	33095
#	56608
#	69120
#	93095
#	101483
#	126870
#	142908
#	160495
#	180808
#
# Disc length: 2701 seconds
#
# Revision: 1
# Processed by: cddbd v1.4PL0 Copyright (c) Steve Scherf et al.
# Submitted via: audiograbber 1.82.02
#
DISCID=710a8b0a
DTITLE=Various Artist - Eagle Road
DYEAR=1900
DGENRE=
TTITLE0=Phil Carmen - On my way in L.A.
TTITLE1=Tony Joe White - Good in blues
TTITLE2=Herman's Hermits - No milk today
TTITLE3=John Mayal and the Bluesbreakers - Sensitive Kind
TTITLE4=The Box Tops - The Letter
TTITLE5=Graham Parker - Don't ask me questions
TTITLE6=Memphis Slim and Canned Heat - Down the big road
TTITLE7=Big Country - In a big country
TTITLE8=Level 42 - Take care of yourself
TTITLE9=B.O.F. Arizona Dream - Rege (instrumental)
EXTD=
EXTT0=
EXTT1=
EXTT2=
EXTT3=
EXTT4=
EXTT5=
EXTT6=
EXTT7=
EXTT8=
EXTT9=
PLAYORDER=
